<svg width="151" height="45" viewBox="0 0 151 45" fill="none" xmlns="http://www.w3.org/2000/svg">
<g id="surface1">
<path id="Vector" d="M144.857 43.5936H6.1447C3.33361 43.5936 1.05566 41.3157 1.05566 38.5046V5.64397C1.05566 2.83288 3.33361 0.554932 6.1447 0.554932H144.857C147.668 0.554932 149.946 2.83288 149.946 5.64397V38.5046C149.946 41.3157 147.668 43.5936 144.857 43.5936Z" fill="black"/>
<g id="Clip path group">
<mask id="mask0_596_354" style="mask-type:luminance" maskUnits="userSpaceOnUse" x="0" y="0" width="151" height="45">
<g id="clip14">
<path id="Vector_2" d="M0.5 0H150.5V44.805H0.5V0Z" fill="white"/>
</g>
</mask>
<g mask="url(#mask0_596_354)">
<g id="Group">
<path id="Vector_3" d="M6.14371 1.11157C3.64497 1.11157 1.61205 3.14449 1.61205 5.64323V38.5039C1.61205 41.0026 3.64497 43.0355 6.14371 43.0355H144.859C147.358 43.0355 149.391 41.0026 149.391 38.5039V5.64323C149.391 3.14449 147.358 1.11157 144.859 1.11157H6.14371ZM144.859 44.1503H6.14371C3.03106 44.1503 0.5 41.6165 0.5 38.5039V5.64323C0.5 2.53057 3.03106 -0.00317383 6.14371 -0.00317383H144.859C147.972 -0.00317383 150.503 2.53057 150.503 5.64323V38.5039C150.503 41.6165 147.972 44.1503 144.859 44.1503Z" fill="#A7A9AB"/>
</g>
</g>
</g>
<path id="Vector_4" d="M52.5143 11.554L51.9435 9.76609C51.8035 9.3245 51.685 8.83175 51.5773 8.4117H51.5558C51.4508 8.83175 51.3404 9.33527 51.2138 9.76609L50.6537 11.554H52.5143ZM50.4383 12.5529L49.8136 14.6101H48.4458L50.7722 7.3562H52.4605L54.8165 14.6101H53.3975L52.7405 12.5529" fill="white"/>
<path id="Vector_5" d="M56.7972 9.37036L57.6481 12.0253C57.7989 12.4884 57.9039 12.9085 58.0008 13.3393H58.0331C58.1301 12.9085 58.2485 12.4992 58.3885 12.0253L59.2286 9.37036H60.6153L58.6147 14.6102H57.3142L55.3647 9.37036" fill="white"/>
<path id="Vector_6" d="M64.6101 12.0469C63.673 12.0361 62.7791 12.23 62.7791 13.027C62.7791 13.544 63.113 13.7809 63.533 13.7809C64.0688 13.7809 64.4485 13.4363 64.575 13.0593C64.6101 12.9624 64.6101 12.8654 64.6101 12.7685V12.0469ZM65.8998 13.3501C65.8998 13.824 65.9214 14.2871 65.986 14.6076H64.7905L64.6962 14.0286H64.6612C64.3516 14.4352 63.8023 14.726 63.113 14.726C62.0575 14.726 61.4678 13.964 61.4678 13.167C61.4678 11.853 62.6391 11.1772 64.575 11.1879V11.1018C64.575 10.7571 64.4377 10.1863 63.5115 10.1863C62.9945 10.1863 62.456 10.3478 62.1005 10.574L61.842 9.71239C62.2298 9.47544 62.9083 9.25195 63.7376 9.25195C65.4151 9.25195 65.8998 10.3155 65.8998 11.468" fill="white"/>
<path id="Vector_7" d="M67.7712 9.37048H69.0933V14.6103H67.7712V9.37048ZM68.4255 8.61655C67.9866 8.61655 67.6958 8.29344 67.6958 7.9057C67.6958 7.49642 67.9947 7.18408 68.439 7.18408C68.8886 7.18408 69.1687 7.49642 69.1794 7.9057C69.1794 8.29344 68.8886 8.61655 68.439 8.61655" fill="white"/>
<path id="Vector_8" d="M70.9961 14.6099H72.3209V6.95752H70.9961V14.6099Z" fill="white"/>
<path id="Vector_9" d="M77.01 12.0469C76.0729 12.0361 75.179 12.23 75.179 13.027C75.179 13.544 75.5129 13.7809 75.9329 13.7809C76.4714 13.7809 76.8484 13.4363 76.9776 13.0593C77.01 12.9624 77.01 12.8654 77.01 12.7685V12.0469ZM78.2997 13.3501C78.2997 13.824 78.3213 14.2871 78.3859 14.6076H77.1931L77.0961 14.0286H77.0638C76.7515 14.4352 76.2022 14.726 75.5129 14.726C74.4601 14.726 73.8677 13.964 73.8677 13.167C73.8677 11.853 75.0417 11.1772 76.9776 11.1879V11.1018C76.9776 10.7571 76.8376 10.1863 75.9114 10.1863C75.3944 10.1863 74.8559 10.3478 74.5031 10.574L74.2446 9.71239C74.6324 9.47544 75.3082 9.25195 76.1375 9.25195C77.815 9.25195 78.2997 10.3155 78.2997 11.468" fill="white"/>
<path id="Vector_10" d="M81.4972 12.4453C81.4972 12.553 81.508 12.6607 81.5296 12.7576C81.6696 13.2962 82.1327 13.6839 82.7008 13.6839C83.5302 13.6839 84.0364 13.0269 84.0364 11.9633C84.0364 11.0371 83.5948 10.2831 82.7116 10.2831C82.1731 10.2831 81.6803 10.6709 81.5403 11.2525C81.5188 11.3494 81.4972 11.4679 81.4972 11.5971V12.4453ZM80.1725 6.95776H81.4972V10.0893H81.5188C81.8419 9.58306 82.41 9.25187 83.1963 9.25187C84.478 9.25187 85.3908 10.3154 85.38 11.9095C85.38 13.7916 84.1872 14.7286 83.0024 14.7286C82.3239 14.7286 81.7234 14.4701 81.3465 13.8239H81.3249L81.2603 14.6102H80.1294C80.1509 14.2547 80.1725 13.6731 80.1725 13.1454" fill="white"/>
<path id="Vector_11" d="M86.939 14.6102H88.261V6.95776H86.939V14.6102Z" fill="white"/>
<path id="Vector_12" d="M93.4129 11.4357C93.4237 10.951 93.2083 10.154 92.3278 10.154C91.5093 10.154 91.1646 10.8971 91.1108 11.4357H93.4129ZM91.1108 12.3592C91.1431 13.307 91.8862 13.7163 92.7263 13.7163C93.3375 13.7163 93.7684 13.6194 94.1776 13.4794L94.3715 14.3814C93.9191 14.5779 93.2945 14.7153 92.5432 14.7153C90.8415 14.7153 89.8398 13.6732 89.8398 12.0711C89.8398 10.6171 90.723 9.25195 92.4032 9.25195C94.1022 9.25195 94.6623 10.6494 94.6623 11.8019C94.6623 12.0496 94.6408 12.2434 94.6192 12.3592" fill="white"/>
<path id="Vector_13" d="M101.236 13.7702C101.987 13.7702 102.515 13.0378 102.515 11.9742C102.515 11.1556 102.149 10.2078 101.247 10.2078C100.31 10.2078 99.9325 11.1233 99.9325 11.9957C99.9325 13.0055 100.439 13.7702 101.222 13.7702H101.236ZM101.193 14.7287C99.7171 14.7287 98.5674 13.7163 98.5674 12.028C98.5674 10.3048 99.6956 9.25195 101.279 9.25195C102.838 9.25195 103.883 10.3478 103.883 11.9419C103.883 13.8671 102.526 14.7287 101.203 14.7287" fill="white"/>
<path id="Vector_14" d="M105.44 10.9294C105.44 10.3263 105.421 9.82009 105.4 9.36774H106.55L106.614 10.154H106.647C106.884 9.7447 107.454 9.25195 108.327 9.25195C109.24 9.25195 110.187 9.84163 110.187 11.5003V14.6076H108.863V11.6511C108.863 10.8971 108.583 10.3263 107.864 10.3263C107.336 10.3263 106.97 10.7033 106.83 11.1018C106.787 11.2095 106.765 11.371 106.765 11.5218V14.6076H105.44" fill="white"/>
<path id="Vector_15" d="M116.285 8.02417V9.36778H117.542V10.3587H116.285V12.6608C116.285 13.3071 116.457 13.6302 116.961 13.6302C117.197 13.6302 117.327 13.6194 117.477 13.5763L117.499 14.5753C117.305 14.6534 116.95 14.7153 116.54 14.7153C116.048 14.7153 115.649 14.5538 115.401 14.2872C115.111 13.9856 114.981 13.5009 114.981 12.8116V10.3587H114.238V9.36778H114.981V8.39037" fill="white"/>
<path id="Vector_16" d="M119.016 6.95776H120.341V10.0785H120.362C120.524 9.83078 120.75 9.62614 121.019 9.48613C121.289 9.33803 121.598 9.25187 121.932 9.25187C122.826 9.25187 123.76 9.84155 123.76 11.5217V14.6102H122.438V11.6618C122.438 10.9078 122.158 10.3262 121.426 10.3262C120.912 10.3262 120.546 10.6709 120.395 11.0694C120.352 11.1879 120.341 11.3279 120.341 11.4679V14.6102H119.016" fill="white"/>
<path id="Vector_17" d="M128.882 11.4357C128.892 10.951 128.677 10.154 127.794 10.154C126.975 10.154 126.633 10.8971 126.58 11.4357H128.882ZM126.58 12.3592C126.612 13.307 127.352 13.7163 128.192 13.7163C128.806 13.7163 129.237 13.6194 129.644 13.4794L129.84 14.3814C129.388 14.5779 128.763 14.7153 128.009 14.7153C126.31 14.7153 125.309 13.6732 125.309 12.0711C125.309 10.6171 126.192 9.25195 127.869 9.25195C129.568 9.25195 130.128 10.6494 130.128 11.8019C130.128 12.0496 130.107 12.2434 130.085 12.3592" fill="white"/>
<path id="Vector_18" d="M33.9792 21.6434C33.9442 18.0541 36.9168 16.3066 37.0541 16.2259C35.3712 13.7702 32.7621 13.4363 31.8439 13.4094C29.6548 13.1805 27.5304 14.7234 26.4156 14.7234C25.2766 14.7234 23.5561 13.4336 21.7062 13.4713C19.3206 13.509 17.0911 14.8903 15.8687 17.031C13.3484 21.4011 15.2278 27.8202 17.6458 31.3529C18.8575 33.0816 20.2684 35.0149 22.1182 34.9449C23.9276 34.8695 24.6035 33.7925 26.7872 33.7925C28.9521 33.7925 29.5875 34.9449 31.475 34.9018C33.4164 34.8695 34.6388 33.1651 35.8047 31.4176C37.2049 29.4358 37.765 27.4837 37.7865 27.384C37.7407 27.3679 34.0169 25.9462 33.9792 21.6434Z" fill="white"/>
<path id="Vector_19" d="M30.4129 11.0881C31.385 9.87106 32.0554 8.21242 31.8669 6.53223C30.4587 6.59685 28.6977 7.50695 27.6826 8.69709C26.786 9.7472 25.9809 11.4678 26.1909 13.0834C27.7742 13.2018 29.3978 12.2863 30.4129 11.0881Z" fill="white"/>
<path id="Vector_20" d="M55.8136 28.4957L54.5643 24.6372C54.4323 24.2441 54.1846 23.3152 53.8184 21.8558H53.7753C53.6299 22.4831 53.393 23.4121 53.0726 24.6372L51.8447 28.4957H55.8136ZM60.1326 34.6591H57.6096L56.2283 30.3186H51.4301L50.1134 34.6591H47.6577L52.4183 19.8821H55.3532" fill="white"/>
<path id="Vector_21" d="M69.9569 29.2876C69.9569 28.2483 69.7226 27.3947 69.2541 26.7216C68.7425 26.0215 68.0559 25.6688 67.1943 25.6688C66.61 25.6688 66.0768 25.8653 65.6056 26.2504C65.1317 26.6408 64.8194 27.147 64.6713 27.7771C64.5986 28.0679 64.5636 28.3075 64.5636 28.496V30.2731C64.5636 31.0486 64.8005 31.7029 65.2744 32.236C65.751 32.7719 66.3676 33.0357 67.1269 33.0357C68.0209 33.0357 68.7156 32.6938 69.2083 32.0045C69.7092 31.3179 69.9569 30.4131 69.9569 29.2876ZM72.3695 29.1988C72.3695 31.0109 71.8794 32.4461 70.8993 33.4962C70.0215 34.4332 68.931 34.899 67.6332 34.899C66.2276 34.899 65.2206 34.3928 64.6067 33.3858H64.5636V38.9999H62.1941V27.5105C62.1941 26.3715 62.1671 25.2029 62.1079 24.002H64.1893L64.3212 25.693H64.367C65.1559 24.4194 66.3542 23.7839 67.9616 23.7839C69.2164 23.7839 70.2692 24.2821 71.1066 25.2756C71.9467 26.2719 72.3695 27.5778 72.3695 29.1988Z" fill="white"/>
<path id="Vector_22" d="M82.2115 29.2874C82.2115 28.248 81.9772 27.3945 81.5087 26.7213C80.9971 26.0213 80.3105 25.6685 79.4489 25.6685C78.8646 25.6685 78.3341 25.8651 77.8602 26.2501C77.3837 26.6406 77.0767 27.1468 76.9313 27.7768C76.8559 28.0676 76.8209 28.3073 76.8209 28.4958V30.2729C76.8209 31.0484 77.0552 31.7027 77.5291 32.2358C78.0056 32.7716 78.6223 33.0355 79.3843 33.0355C80.2755 33.0355 80.9702 32.6935 81.4657 32.0042C81.9611 31.3176 82.2115 30.4129 82.2115 29.2874ZM84.6214 29.1985C84.6214 31.0107 84.134 32.4458 83.1539 33.4959C82.2761 34.433 81.1883 34.8988 79.8878 34.8988C78.4849 34.8988 77.4779 34.3926 76.8613 33.3855H76.8209V38.9996H74.4514V27.5103C74.4514 26.3713 74.4218 25.2027 74.3652 24.0018H76.4466L76.5786 25.6928H76.6243C77.4106 24.4191 78.6088 23.7837 80.2163 23.7837C81.4737 23.7837 82.5212 24.2818 83.3639 25.2754C84.204 26.2717 84.6214 27.5776 84.6214 29.1985Z" fill="white"/>
<path id="Vector_23" d="M98.3268 30.515C98.3268 31.7698 97.8906 32.793 97.0128 33.5846C96.0488 34.4463 94.7106 34.8771 92.99 34.8771C91.3987 34.8771 90.1224 34.5701 89.1558 33.9562L89.7051 31.9852C90.7471 32.6126 91.8861 32.9249 93.1301 32.9249C94.0213 32.9249 94.716 32.7257 95.2141 32.3245C95.7096 31.9206 95.9573 31.3821 95.9573 30.7089C95.9573 30.1112 95.7554 29.6023 95.3461 29.193C94.9368 28.7837 94.2556 28.404 93.3051 28.0513C90.7175 27.0847 89.425 25.671 89.425 23.8131C89.425 22.5988 89.8774 21.6025 90.7848 20.827C91.6895 20.0516 92.8958 19.6611 94.401 19.6611C95.7473 19.6611 96.8647 19.8981 97.756 20.3639L97.1636 22.2945C96.3316 21.8421 95.3892 21.6133 94.3363 21.6133C93.5016 21.6133 92.8527 21.8179 92.3869 22.2272C91.9938 22.5934 91.7945 23.0404 91.7945 23.5654C91.7945 24.1497 92.018 24.6317 92.4731 25.0114C92.8662 25.3614 93.5824 25.741 94.6218 26.153C95.8927 26.6646 96.827 27.2624 97.4275 27.949C98.0252 28.6356 98.3268 29.4919 98.3268 30.515Z" fill="white"/>
<path id="Vector_24" d="M106.149 25.779H103.54V30.9515C103.54 32.2681 104.001 32.9251 104.924 32.9251C105.344 32.9251 105.697 32.8901 105.974 32.8174L106.039 34.6134C105.576 34.7911 104.959 34.8773 104.2 34.8773C103.266 34.8773 102.533 34.5919 102.005 34.0237C101.48 33.4529 101.216 32.4943 101.216 31.1507V25.779H99.6602V24.0018H101.216V22.0524L103.54 21.3496V24.0018H106.149" fill="white"/>
<path id="Vector_25" d="M115.468 29.3199C115.468 28.3371 115.255 27.497 114.83 26.7916C114.337 25.9407 113.626 25.5153 112.705 25.5153C111.755 25.5153 111.031 25.9407 110.535 26.7916C110.11 27.497 109.902 28.3533 109.902 29.3657C109.902 30.3485 110.11 31.1886 110.535 31.8914C111.047 32.7423 111.763 33.1677 112.686 33.1677C113.589 33.1677 114.299 32.7369 114.811 31.8698C115.25 31.1536 115.468 30.3027 115.468 29.3199ZM117.924 29.2445C117.924 30.8817 117.458 32.2253 116.521 33.2781C115.541 34.3605 114.24 34.899 112.619 34.899C111.052 34.899 109.808 34.3794 108.879 33.3427C107.953 32.306 107.49 30.9974 107.49 29.4196C107.49 27.7663 107.966 26.4146 108.925 25.3645C109.881 24.309 111.171 23.7839 112.791 23.7839C114.356 23.7839 115.616 24.3036 116.564 25.3403C117.471 26.3527 117.924 27.6505 117.924 29.2445Z" fill="white"/>
<path id="Vector_26" d="M125.622 26.0859C125.388 26.0428 125.14 26.0213 124.876 26.0213C124.044 26.0213 123.398 26.3363 122.946 26.9637C122.553 27.521 122.356 28.2211 122.356 29.0666V34.6592H119.989L120.008 27.3595C120.008 26.129 119.978 25.0115 119.922 24.0018H121.984L122.071 26.0428H122.133C122.383 25.3427 122.779 24.7773 123.317 24.3545C123.845 23.9749 124.416 23.7837 125.03 23.7837C125.248 23.7837 125.447 23.7998 125.622 23.8268" fill="white"/>
<path id="Vector_27" d="M133.947 28.2131C133.963 27.513 133.809 26.9045 133.489 26.3929C133.08 25.7359 132.447 25.4047 131.601 25.4047C130.829 25.4047 130.199 25.7278 129.717 26.3713C129.323 26.8829 129.086 27.4969 129.019 28.2131H133.947ZM136.203 28.827C136.203 29.2524 136.176 29.6079 136.12 29.9014H129.019C129.043 30.9542 129.388 31.7593 130.048 32.3139C130.646 32.8121 131.421 33.0571 132.371 33.0571C133.422 33.0571 134.38 32.8902 135.244 32.5536L135.616 34.1988C134.606 34.635 133.416 34.8585 132.04 34.8585C130.39 34.8585 129.092 34.3711 128.149 33.3964C127.21 32.427 126.736 31.1211 126.736 29.484C126.736 27.8765 127.172 26.5383 128.053 25.472C128.971 24.3303 130.215 23.7622 131.776 23.7622C133.311 23.7622 134.477 24.3303 135.266 25.472C135.893 26.3767 136.203 27.4969 136.203 28.827Z" fill="white"/>
</g>
</svg>
