<svg width="151" height="45" viewBox="0 0 151 45" fill="none" xmlns="http://www.w3.org/2000/svg">
<g id="huawei-appgallery-seeklogo.com 1" clip-path="url(#clip0_596_247)">
<g id="Group">
<g id="Clip path group">
<mask id="mask0_596_247" style="mask-type:luminance" maskUnits="userSpaceOnUse" x="1" y="0" width="149" height="45">
<g id="clipPath526">
<path id="Vector" d="M149.978 0H1.03467V44.684H149.978V0Z" fill="white"/>
</g>
</mask>
<g mask="url(#mask0_596_247)">
<path id="Vector_2" d="M139.471 0H10.3346H9.32179C8.58115 0.0107694 7.8423 0.0764868 7.11138 0.19661C6.38519 0.319603 5.68205 0.552652 5.02609 0.887727C4.36635 1.22501 3.76332 1.66323 3.23873 2.18658C2.71425 2.71015 2.2759 3.3134 1.93987 3.97394C1.60075 4.63917 1.36565 5.35245 1.2428 6.08895C1.11934 6.81843 1.05361 7.55649 1.04619 8.29634C1.02832 8.63891 1.02832 8.97256 1.02832 9.31216V35.3752C1.02832 35.7178 1.02832 36.0514 1.04619 36.394C1.05386 37.1338 1.11959 37.8719 1.2428 38.6014C1.36459 39.3274 1.59665 40.0307 1.93094 40.6866C2.60669 42.0209 3.68691 43.1073 5.01715 43.7907C5.67334 44.1264 6.37633 44.3613 7.10244 44.4878C7.83343 44.607 8.57221 44.6717 9.31285 44.6814H10.3257H140.658H141.673C142.412 44.6723 143.149 44.6075 143.877 44.4878C144.61 44.3609 145.32 44.1259 145.984 43.7907C146.645 43.4569 147.249 43.0183 147.772 42.4919C148.298 41.9692 148.739 41.3658 149.076 40.7045C149.407 40.0477 149.637 39.3448 149.758 38.6193C149.882 37.8896 149.95 37.1518 149.963 36.4119V35.3931V34.2015V10.5156V9.324V8.30817C149.95 7.56828 149.882 6.83047 149.758 6.10078C149.636 5.3756 149.406 4.67279 149.076 4.01549C148.4 2.67742 147.322 1.58535 145.993 0.893525C145.328 0.561891 144.619 0.331935 143.886 0.211344C143.158 0.0905634 142.421 0.0248443 141.682 0.0147346H140.667L139.471 0Z" fill="#B6B6B6"/>
</g>
</g>
<g id="Clip path group_2">
<mask id="mask1_596_247" style="mask-type:luminance" maskUnits="userSpaceOnUse" x="1" y="0" width="149" height="45">
<g id="clipPath520">
<path id="Vector_3" d="M149.978 0H1.03467V44.684H149.978V0Z" fill="white"/>
</g>
</mask>
<g mask="url(#mask1_596_247)">
<path id="Vector_4" d="M10.347 43.7188H9.34907C8.65848 43.7098 7.96945 43.6501 7.28768 43.54C6.65303 43.4322 6.03776 43.2315 5.46156 42.9443C4.31698 42.3576 3.38465 41.4274 2.79538 40.284C2.5054 39.708 2.30452 39.0913 2.19958 38.455C2.08568 37.7717 2.02492 37.0804 2.01787 36.3876C2.01787 36.1552 2 35.3807 2 35.3807V9.31205C2 9.31205 2 8.54945 2.01787 8.32603C2.02302 7.63229 2.08279 6.94004 2.19661 6.2557C2.30019 5.61716 2.50112 4.99829 2.79239 4.42064C3.08195 3.85227 3.46116 3.33425 3.91541 2.88653C4.36915 2.43234 4.89073 2.05144 5.46148 1.75747C6.03633 1.4697 6.65075 1.26891 7.28459 1.16169C7.96818 1.04927 8.65929 0.988526 9.35201 0.97998H141.673C142.358 0.985855 143.044 1.04562 143.721 1.15872C144.361 1.26374 144.983 1.46459 145.562 1.75451C146.71 2.3463 147.641 3.28438 148.225 4.43555C148.515 5.00876 148.716 5.62236 148.822 6.25565C148.936 6.94515 149 7.64208 149.012 8.34094V9.32399V10.5156V34.168V35.3595V36.3872C149.002 37.0722 148.938 37.7553 148.824 38.4309C148.723 39.0716 148.522 39.6927 148.229 40.2718C147.637 41.4108 146.706 42.3381 145.566 42.9261C144.987 43.2163 144.367 43.4171 143.728 43.5218C143.046 43.6325 142.356 43.6923 141.666 43.7006H140.677H10.3451L10.347 43.7188Z" fill="black"/>
</g>
</g>
<g id="Group_2">
<g id="Clip path group_3">
<mask id="mask2_596_247" style="mask-type:luminance" maskUnits="userSpaceOnUse" x="1" y="0" width="149" height="45">
<g id="clipPath514">
<path id="Vector_5" d="M149.978 0H1.03467V44.684H149.978V0Z" fill="white"/>
</g>
</mask>
<g mask="url(#mask2_596_247)">
<path id="Vector_6" d="M56.3211 30.1651H51.0811L49.809 33.6623H47.5063L52.6302 20.5967H54.8047L60.0447 33.6623H57.6348L56.3211 30.1651ZM51.7483 28.3777H55.6508L54.2536 24.6361C54.063 24.1208 53.8724 23.5488 53.6876 22.9233C53.5178 23.4773 53.3331 24.0404 53.1365 24.6182L51.7483 28.3777Z" fill="white"/>
</g>
</g>
<g id="Clip path group_4">
<mask id="mask3_596_247" style="mask-type:luminance" maskUnits="userSpaceOnUse" x="1" y="0" width="149" height="45">
<g id="clipPath508">
<path id="Vector_7" d="M149.978 0H1.03467V44.684H149.978V0Z" fill="white"/>
</g>
</mask>
<g mask="url(#mask3_596_247)">
<path id="Vector_8" d="M60.9714 26.3133C60.9714 25.5924 60.9475 24.798 60.8999 23.9301H62.9851C63.0635 24.3386 63.1172 24.7515 63.1459 25.1664C63.5109 24.7292 63.966 24.3761 64.4802 24.1313C64.9944 23.8864 65.5555 23.7558 66.1249 23.7485C66.7926 23.7379 67.4482 23.9266 68.0081 24.2907C68.5679 24.6548 69.0065 25.1775 69.2678 25.792C69.6342 26.6368 69.8082 27.5526 69.7771 28.473C69.7997 29.4766 69.5962 30.4723 69.1813 31.3864C68.8343 32.1451 68.2677 32.7822 67.5548 33.2155C66.8213 33.6394 65.986 33.8547 65.1389 33.8381C64.4724 33.8377 63.8107 33.7249 63.1817 33.5045V37.535L60.9535 37.7256L60.9714 26.3133ZM66.8279 31.2792C67.2808 30.6834 67.5101 29.7898 67.5101 28.5981C67.5101 27.5119 67.3214 26.7174 66.9441 26.215C66.7736 25.9814 66.5491 25.7928 66.2897 25.6652C66.0302 25.5375 65.7437 25.4747 65.4547 25.4822C65.0384 25.4766 64.6278 25.5793 64.263 25.78C63.8757 25.9995 63.5233 26.2757 63.2174 26.5993V31.8124C63.4643 31.9288 63.7244 32.0148 63.992 32.0686C64.2798 32.1309 64.5734 32.1628 64.8678 32.1639C65.2417 32.1863 65.6156 32.1175 65.957 31.9634C66.2985 31.8092 66.5973 31.5744 66.8279 31.2792Z" fill="white"/>
</g>
</g>
<g id="Clip path group_5">
<mask id="mask4_596_247" style="mask-type:luminance" maskUnits="userSpaceOnUse" x="1" y="0" width="149" height="45">
<g id="clipPath502">
<path id="Vector_9" d="M149.978 0H1.03467V44.684H149.978V0Z" fill="white"/>
</g>
</mask>
<g mask="url(#mask4_596_247)">
<path id="Vector_10" d="M71.1325 26.3133C71.1325 25.5924 71.1087 24.798 71.061 23.9301H73.1463C73.2271 24.3383 73.2818 24.7513 73.3102 25.1664C74.178 24.2211 75.171 23.7485 76.2891 23.7485C76.9568 23.7379 77.6124 23.9266 78.1723 24.2907C78.7321 24.6548 79.1706 25.1775 79.4319 25.792C79.7983 26.6368 79.9724 27.5526 79.9412 28.473C79.9686 29.4754 79.7701 30.4712 79.3603 31.3864C79.0126 32.1455 78.4449 32.7827 77.7309 33.2155C76.9975 33.6397 76.1621 33.8551 75.315 33.8381C74.6485 33.8377 73.9868 33.7249 73.3578 33.5045V37.535L71.1296 37.7256L71.1325 26.3133ZM76.9981 31.2792C77.4508 30.6695 77.6773 29.7758 77.6773 28.5981C77.6773 27.5119 77.4896 26.7174 77.1143 26.215C76.9438 25.9814 76.7192 25.7928 76.4598 25.6652C76.2004 25.5375 75.9138 25.4747 75.6248 25.4822C75.2086 25.4772 74.7981 25.5797 74.4332 25.78C74.0458 25.9995 73.6934 26.2757 73.3876 26.5993V31.8124C73.6348 31.9279 73.8948 32.0139 74.1621 32.0686C74.45 32.1309 74.7434 32.1628 75.0379 32.1639C75.4118 32.1858 75.7855 32.1168 76.1269 31.9626C76.4682 31.8086 76.7672 31.5741 76.9981 31.2792Z" fill="white"/>
</g>
</g>
<g id="Clip path group_6">
<mask id="mask5_596_247" style="mask-type:luminance" maskUnits="userSpaceOnUse" x="1" y="0" width="149" height="45">
<g id="clipPath496">
<path id="Vector_11" d="M149.978 0H1.03467V44.684H149.978V0Z" fill="white"/>
</g>
</mask>
<g mask="url(#mask5_596_247)">
<path id="Vector_12" d="M84.0371 33.0451C83.0852 32.5231 82.312 31.727 81.8179 30.7603C81.2778 29.6679 81.0119 28.4604 81.0433 27.2422C81.0046 25.9388 81.3131 24.6486 81.937 23.5036C82.5003 22.5099 83.3465 21.7064 84.3678 21.1949C85.4412 20.6705 86.623 20.4062 87.8174 20.4234C88.5418 20.4202 89.2639 20.5043 89.9682 20.6736C90.6269 20.8287 91.2663 21.0565 91.8747 21.3528L91.2968 23.0657C90.2431 22.5342 89.0837 22.2451 87.9038 22.2197C87.0709 22.2057 86.249 22.4113 85.5206 22.8154C84.8296 23.2121 84.2742 23.8081 83.927 24.5254C83.5276 25.3761 83.3338 26.3087 83.3609 27.2481C83.3461 28.0944 83.4938 28.9358 83.7958 29.7266C84.0702 30.4265 84.5525 31.0254 85.1781 31.4425C85.8907 31.8883 86.7214 32.1084 87.5612 32.074C87.9964 32.0729 88.4309 32.036 88.8601 31.9637C89.2753 31.8977 89.6834 31.792 90.0784 31.648V28.9908H87.0577V27.2601H92.2441V32.768C91.4916 33.1187 90.7036 33.3874 89.8937 33.5695C89.0907 33.7544 88.2692 33.8484 87.4451 33.8494C86.2589 33.8779 85.0854 33.601 84.0371 33.0451Z" fill="white"/>
</g>
</g>
<g id="Clip path group_7">
<mask id="mask6_596_247" style="mask-type:luminance" maskUnits="userSpaceOnUse" x="1" y="0" width="149" height="45">
<g id="clipPath490">
<path id="Vector_13" d="M149.978 0H1.03467V44.684H149.978V0Z" fill="white"/>
</g>
</mask>
<g mask="url(#mask6_596_247)">
<path id="Vector_14" d="M100.159 33.6617C100.075 33.2363 100.023 32.8051 100.004 32.3719C99.6324 32.8049 99.1777 33.1592 98.667 33.4145C98.0904 33.7065 97.4513 33.8537 96.8051 33.8434C96.2764 33.8501 95.7529 33.7371 95.274 33.5128C94.8183 33.2991 94.4375 32.9536 94.1807 32.5208C93.896 32.0304 93.7547 31.4699 93.7726 30.9032C93.7559 30.4734 93.8395 30.0455 94.0168 29.6535C94.1942 29.2617 94.4604 28.9164 94.7943 28.6452C95.4735 28.0812 96.6065 27.8001 98.1933 27.8022C98.7844 27.8019 99.3746 27.8437 99.9598 27.9273V27.7366C99.9598 26.8787 99.7771 26.273 99.4117 25.9195C98.9748 25.5436 98.4079 25.3543 97.8328 25.3922C97.3178 25.3985 96.8055 25.4685 96.3076 25.6007C95.8144 25.7197 95.3336 25.8852 94.8718 26.0952L94.5203 24.4747C95.0254 24.2591 95.5501 24.0925 96.0872 23.9772C96.7626 23.8245 97.4531 23.7485 98.1456 23.7508C98.8793 23.7308 99.6093 23.8616 100.29 24.1351C100.89 24.3999 101.377 24.8656 101.67 25.4518C102.035 26.2365 102.206 27.0981 102.167 27.963V31.8357C102.167 32.2328 102.191 32.8425 102.239 33.6647L100.159 33.6617ZM98.8248 31.8743C99.2542 31.6748 99.64 31.3924 99.9598 31.0432V29.2558C99.4654 29.1974 98.9682 29.1646 98.4704 29.1575C97.5509 29.1575 96.9143 29.3066 96.5609 29.6044C96.3884 29.7501 96.2513 29.933 96.16 30.1395C96.0687 30.3459 96.0255 30.5705 96.0336 30.796C96.0174 30.9909 96.0434 31.187 96.1097 31.371C96.176 31.5551 96.2811 31.7226 96.4179 31.8625C96.7082 32.1074 97.0812 32.232 97.4605 32.211C97.9349 32.2038 98.4015 32.0887 98.8248 31.8743Z" fill="white"/>
</g>
</g>
<g id="Clip path group_8">
<mask id="mask7_596_247" style="mask-type:luminance" maskUnits="userSpaceOnUse" x="1" y="0" width="149" height="45">
<g id="clipPath484">
<path id="Vector_15" d="M149.978 0H1.03467V44.684H149.978V0Z" fill="white"/>
</g>
</mask>
<g mask="url(#mask7_596_247)">
<path id="Vector_16" d="M103.888 31.327V19.8286L106.105 19.6499V30.9315C106.073 31.2446 106.148 31.5593 106.316 31.8252C106.401 31.9167 106.506 31.9876 106.623 32.0325C106.739 32.0774 106.865 32.0952 106.989 32.0844C107.191 32.0756 107.392 32.0416 107.585 31.983L107.847 33.5798C107.598 33.674 107.339 33.7418 107.076 33.7823C106.791 33.8316 106.503 33.8575 106.215 33.8598C104.664 33.8498 103.888 33.0051 103.888 31.327Z" fill="white"/>
</g>
</g>
<g id="Clip path group_9">
<mask id="mask8_596_247" style="mask-type:luminance" maskUnits="userSpaceOnUse" x="1" y="0" width="149" height="45">
<g id="clipPath478">
<path id="Vector_17" d="M149.978 0H1.03467V44.684H149.978V0Z" fill="white"/>
</g>
</mask>
<g mask="url(#mask8_596_247)">
<path id="Vector_18" d="M109.432 31.327V19.8286L111.651 19.6499V30.9315C111.62 31.2446 111.694 31.5593 111.863 31.8252C111.948 31.9167 112.053 31.9876 112.169 32.0325C112.286 32.0774 112.412 32.0952 112.537 32.0844C112.738 32.0756 112.939 32.0416 113.132 31.983L113.391 33.5798C113.143 33.674 112.885 33.7419 112.623 33.7823C112.337 33.8318 112.048 33.8578 111.759 33.8598C110.21 33.8498 109.434 33.0051 109.432 31.327Z" fill="white"/>
</g>
</g>
<g id="Clip path group_10">
<mask id="mask9_596_247" style="mask-type:luminance" maskUnits="userSpaceOnUse" x="1" y="0" width="149" height="45">
<g id="clipPath472">
<path id="Vector_19" d="M149.978 0H1.03467V44.684H149.978V0Z" fill="white"/>
</g>
</mask>
<g mask="url(#mask9_596_247)">
<path id="Vector_20" d="M122.504 29.0804H116.137C116.239 31.12 117.21 32.1398 119.051 32.1398C119.523 32.1373 119.995 32.0814 120.454 31.9729C120.924 31.8637 121.383 31.7142 121.828 31.5261L122.316 33.0514C121.169 33.5918 119.913 33.8629 118.646 33.8437C117.738 33.87 116.838 33.6649 116.03 33.248C115.331 32.8699 114.77 32.2795 114.428 31.5618C114.05 30.7304 113.866 29.8236 113.892 28.9106C113.866 27.9538 114.062 27.0041 114.461 26.1343C114.8 25.396 115.351 24.7743 116.042 24.3469C116.751 23.9294 117.562 23.7171 118.384 23.7332C119.199 23.7043 120.005 23.9303 120.686 24.3796C121.302 24.8064 121.778 25.404 122.057 26.0985C122.364 26.855 122.516 27.6654 122.504 28.4816V29.0804ZM120.332 27.6654C120.337 27.033 120.127 26.4177 119.737 25.9198C119.561 25.7239 119.346 25.569 119.104 25.466C118.863 25.3631 118.602 25.3145 118.339 25.3239C118.076 25.3186 117.813 25.3687 117.57 25.4714C117.326 25.574 117.107 25.7269 116.927 25.9198C116.507 26.4091 116.25 27.0172 116.191 27.6594L120.332 27.6654Z" fill="white"/>
</g>
</g>
<g id="Clip path group_11">
<mask id="mask10_596_247" style="mask-type:luminance" maskUnits="userSpaceOnUse" x="1" y="0" width="149" height="45">
<g id="clipPath466">
<path id="Vector_21" d="M149.978 0H1.03467V44.684H149.978V0Z" fill="white"/>
</g>
</mask>
<g mask="url(#mask10_596_247)">
<path id="Vector_22" d="M124.19 26.3759C124.19 25.8426 124.164 25.0265 124.117 23.9332H126.201C126.237 24.2043 126.27 24.5289 126.306 24.9013C126.342 25.2737 126.36 25.5835 126.371 25.8188C126.596 25.4391 126.85 25.0785 127.134 24.7405C127.38 24.4516 127.677 24.2102 128.01 24.0284C128.359 23.8394 128.753 23.744 129.15 23.7514C129.452 23.744 129.754 23.7812 130.044 23.8617L129.765 25.792C129.415 25.691 129.049 25.6653 128.69 25.7167C128.33 25.7681 127.985 25.8953 127.679 26.0899C127.186 26.4564 126.756 26.9012 126.407 27.4066V33.6623H124.19V26.3759Z" fill="white"/>
</g>
</g>
<g id="Clip path group_12">
<mask id="mask11_596_247" style="mask-type:luminance" maskUnits="userSpaceOnUse" x="1" y="0" width="149" height="45">
<g id="clipPath460">
<path id="Vector_23" d="M149.978 0H1.03467V44.684H149.978V0Z" fill="white"/>
</g>
</mask>
<g mask="url(#mask11_596_247)">
<path id="Vector_24" d="M131.284 37.6452C131.011 37.6012 130.744 37.5365 130.482 37.4515L130.887 35.828C131.075 35.8785 131.265 35.9192 131.456 35.9501C131.671 35.9882 131.888 36.0082 132.106 36.0098C133.098 36.0098 133.838 35.3752 134.323 34.1062L134.468 33.7457L130.878 23.9331H133.261L135.084 29.4173C135.318 30.1227 135.507 30.842 135.651 31.5711C135.821 30.8681 136.017 30.1651 136.246 29.462L138.064 23.9331H140.307L136.732 33.7904C136.462 34.5844 136.095 35.3418 135.638 36.0455C135.291 36.5769 134.815 37.0131 134.257 37.3145C133.657 37.6071 132.995 37.7502 132.33 37.7315C131.979 37.7329 131.629 37.7039 131.284 37.6452Z" fill="white"/>
</g>
</g>
<g id="Clip path group_13">
<mask id="mask12_596_247" style="mask-type:luminance" maskUnits="userSpaceOnUse" x="1" y="0" width="149" height="45">
<g id="clipPath454">
<path id="Vector_25" d="M149.978 0H1.03467V44.684H149.978V0Z" fill="white"/>
</g>
</mask>
<g mask="url(#mask12_596_247)">
<path id="Vector_26" d="M47.5059 8.15625H51.4679L51.3576 9.11547H48.6617V10.9713H51.2027V11.865H48.6617V13.9204H51.5006L51.4023 14.8945H47.5059V8.15625Z" fill="white"/>
</g>
</g>
<g id="Clip path group_14">
<mask id="mask13_596_247" style="mask-type:luminance" maskUnits="userSpaceOnUse" x="1" y="0" width="149" height="45">
<g id="clipPath448">
<path id="Vector_27" d="M149.978 0H1.03467V44.684H149.978V0Z" fill="white"/>
</g>
</mask>
<g mask="url(#mask13_596_247)">
<path id="Vector_28" d="M54.206 11.4569L52.1207 8.15625H53.4434L54.8613 10.5811L56.3507 8.15625H57.6347L55.5494 11.4153L57.8045 14.8946H56.464L54.8583 12.2434L53.2229 14.8946H51.939L54.206 11.4569Z" fill="white"/>
</g>
</g>
<g id="Clip path group_15">
<mask id="mask14_596_247" style="mask-type:luminance" maskUnits="userSpaceOnUse" x="1" y="0" width="149" height="45">
<g id="clipPath442">
<path id="Vector_29" d="M149.978 0H1.03467V44.684H149.978V0Z" fill="white"/>
</g>
</mask>
<g mask="url(#mask14_596_247)">
<path id="Vector_30" d="M58.6592 8.15625H60.4764C61.3283 8.15625 61.9817 8.33003 62.4364 8.67757C62.6626 8.85556 62.8426 9.08554 62.9608 9.34798C63.0791 9.61043 63.1322 9.89753 63.1156 10.1849C63.1283 10.5954 63.025 11.0011 62.8178 11.3556C62.6155 11.689 62.3205 11.9561 61.9688 12.1242C61.5781 12.309 61.1498 12.4007 60.7177 12.3923C60.4176 12.3881 60.1186 12.3572 59.824 12.3V14.8946H58.6592V8.15625ZM61.5785 11.1649C61.7056 11.0429 61.8047 10.8947 61.8691 10.7307C61.9333 10.5666 61.9612 10.3906 61.9509 10.2147C61.966 10.0461 61.9394 9.87637 61.8735 9.72052C61.8075 9.56465 61.7042 9.42743 61.5726 9.32098C61.2373 9.1168 60.8471 9.02109 60.4555 9.04692H59.824V11.43C60.0453 11.4699 60.2694 11.4928 60.4942 11.4985C60.8848 11.5279 61.272 11.4087 61.5785 11.1649Z" fill="white"/>
</g>
</g>
<g id="Clip path group_16">
<mask id="mask15_596_247" style="mask-type:luminance" maskUnits="userSpaceOnUse" x="1" y="0" width="149" height="45">
<g id="clipPath436">
<path id="Vector_31" d="M149.978 0H1.03467V44.684H149.978V0Z" fill="white"/>
</g>
</mask>
<g mask="url(#mask15_596_247)">
<path id="Vector_32" d="M64.2656 8.15625H65.4274V13.8997H68.2157L68.1174 14.8946H64.2656V8.15625Z" fill="white"/>
</g>
</g>
<g id="Clip path group_17">
<mask id="mask16_596_247" style="mask-type:luminance" maskUnits="userSpaceOnUse" x="1" y="0" width="149" height="45">
<g id="clipPath430">
<path id="Vector_33" d="M149.978 0H1.03467V44.684H149.978V0Z" fill="white"/>
</g>
</mask>
<g mask="url(#mask16_596_247)">
<path id="Vector_34" d="M69.9852 14.5637C69.4969 14.289 69.1025 13.8739 68.8532 13.3722C68.5822 12.8161 68.4484 12.2033 68.463 11.5848C68.4487 10.9386 68.5918 10.2986 68.88 9.71994C69.1442 9.1984 69.5594 8.76861 70.0716 8.48666C70.6449 8.18637 71.2866 8.04058 71.9334 8.06365C72.545 8.04724 73.1501 8.1921 73.688 8.48368C74.1733 8.75938 74.5646 9.17452 74.811 9.67529C75.0767 10.2256 75.2084 10.8309 75.1953 11.4419C75.2115 12.0953 75.0673 12.7427 74.7753 13.3275C74.5086 13.8472 74.094 14.2764 73.5838 14.5608C73.0204 14.8604 72.3896 15.0102 71.7517 14.9957C71.1349 15.0114 70.5252 14.8622 69.9852 14.5637ZM72.9999 13.7386C73.3283 13.521 73.5836 13.2095 73.7327 12.8449C73.8998 12.4275 73.9819 11.9807 73.974 11.5312C73.9815 11.0898 73.9088 10.6508 73.7595 10.2354C73.6258 9.87556 73.3871 9.56421 73.0744 9.34169C72.7116 9.11973 72.2947 9.00228 71.8694 9.00228C71.4441 9.00228 71.0271 9.11973 70.6644 9.34169C70.335 9.57017 70.0785 9.88872 69.9256 10.2592C69.7562 10.6595 69.6719 11.0906 69.6783 11.5252C69.6711 11.9731 69.75 12.418 69.9108 12.836C70.0534 13.2184 70.3144 13.5454 70.6556 13.7694C70.9969 13.9932 71.4006 14.1025 71.8083 14.0812C72.2312 14.0917 72.6471 13.972 72.9999 13.7386Z" fill="white"/>
</g>
</g>
<g id="Clip path group_18">
<mask id="mask17_596_247" style="mask-type:luminance" maskUnits="userSpaceOnUse" x="1" y="0" width="149" height="45">
<g id="clipPath424">
<path id="Vector_35" d="M149.978 0H1.03467V44.684H149.978V0Z" fill="white"/>
</g>
</mask>
<g mask="url(#mask17_596_247)">
<path id="Vector_36" d="M76.4912 8.1564H78.6003C79.2182 8.11267 79.8331 8.27505 80.3489 8.61815C80.5467 8.7735 80.7042 8.97432 80.808 9.20354C80.9117 9.43276 80.9586 9.68363 80.9446 9.93483C80.9517 10.2615 80.878 10.5848 80.7302 10.8762C80.6009 11.1317 80.4204 11.3578 80.2 11.5405C80.0028 11.6996 79.7816 11.8264 79.5446 11.9159L81.6299 14.8947H80.2744L78.5199 12.2137H77.6648V14.8947H76.4912V8.1564ZM78.3172 11.3439C78.5759 11.3495 78.8323 11.2933 79.065 11.1801C79.2745 11.0794 79.4512 10.9214 79.5744 10.7243C79.6973 10.5139 79.7602 10.2738 79.756 10.0302C79.7681 9.88958 79.745 9.74818 79.6888 9.61872C79.6326 9.48925 79.5453 9.37575 79.4343 9.28844C79.155 9.11359 78.8277 9.03124 78.499 9.0531H77.6559V11.3558L78.3172 11.3439Z" fill="white"/>
</g>
</g>
<g id="Clip path group_19">
<mask id="mask18_596_247" style="mask-type:luminance" maskUnits="userSpaceOnUse" x="1" y="0" width="149" height="45">
<g id="clipPath418">
<path id="Vector_37" d="M149.978 0H1.03467V44.684H149.978V0Z" fill="white"/>
</g>
</mask>
<g mask="url(#mask18_596_247)">
<path id="Vector_38" d="M82.5381 8.15625H86.509L86.3959 9.11547H83.7148V10.9713H86.232V11.865H83.6909V13.9204H86.5299L86.4435 14.8945H82.5381V8.15625Z" fill="white"/>
</g>
</g>
<g id="Clip path group_20">
<mask id="mask19_596_247" style="mask-type:luminance" maskUnits="userSpaceOnUse" x="1" y="0" width="149" height="45">
<g id="clipPath412">
<path id="Vector_39" d="M149.978 0H1.03467V44.684H149.978V0Z" fill="white"/>
</g>
</mask>
<g mask="url(#mask19_596_247)">
<path id="Vector_40" d="M90.8291 8.15625H91.9909V14.8946H90.8291V8.15625Z" fill="white"/>
</g>
</g>
<g id="Clip path group_21">
<mask id="mask20_596_247" style="mask-type:luminance" maskUnits="userSpaceOnUse" x="1" y="0" width="149" height="45">
<g id="clipPath406">
<path id="Vector_41" d="M149.978 0H1.03467V44.684H149.978V0Z" fill="white"/>
</g>
</mask>
<g mask="url(#mask20_596_247)">
<path id="Vector_42" d="M95.0677 9.12738H92.9824L93.0837 8.15625H98.3266L98.2194 9.12738H96.2325V14.8945H95.0677V9.12738Z" fill="white"/>
</g>
</g>
<g id="Clip path group_22">
<mask id="mask21_596_247" style="mask-type:luminance" maskUnits="userSpaceOnUse" x="1" y="0" width="149" height="45">
<g id="clipPath400">
<path id="Vector_43" d="M149.978 0H1.03467V44.684H149.978V0Z" fill="white"/>
</g>
</mask>
<g mask="url(#mask21_596_247)">
<path id="Vector_44" d="M103.376 14.5638C102.889 14.2888 102.496 13.8737 102.247 13.3723C101.974 12.8169 101.839 12.2037 101.854 11.5849C101.84 10.9386 101.983 10.2987 102.271 9.72001C102.536 9.199 102.951 8.76941 103.463 8.48673C104.032 8.18495 104.669 8.03515 105.313 8.05179C105.931 8.03514 106.543 8.18427 107.085 8.48374C107.571 8.75856 107.963 9.17393 108.208 9.67536C108.475 10.2254 108.608 10.8307 108.595 11.4419C108.612 12.0957 108.467 12.7435 108.173 13.3276C107.907 13.848 107.492 14.2773 106.981 14.5609C106.418 14.8613 105.787 15.0111 105.149 14.9958C104.53 15.0124 103.918 14.8633 103.376 14.5638ZM106.394 13.7387C106.721 13.5201 106.975 13.2088 107.124 12.845C107.291 12.4275 107.373 11.9808 107.365 11.5313C107.373 11.0899 107.3 10.6508 107.151 10.2354C107.018 9.87583 106.78 9.56444 106.468 9.34176C106.105 9.11954 105.688 9.00195 105.262 9.00195C104.836 9.00195 104.419 9.11954 104.056 9.34176C103.726 9.57024 103.47 9.88879 103.317 10.2593C103.149 10.6599 103.065 11.0908 103.07 11.5253C103.062 11.9731 103.141 12.4181 103.302 12.8361C103.444 13.2035 103.692 13.5206 104.014 13.7476C104.367 13.9803 104.783 14.0971 105.205 14.0812C105.627 14.0899 106.042 13.9705 106.394 13.7387Z" fill="white"/>
</g>
</g>
<g id="Clip path group_23">
<mask id="mask22_596_247" style="mask-type:luminance" maskUnits="userSpaceOnUse" x="1" y="0" width="149" height="45">
<g id="clipPath394">
<path id="Vector_45" d="M149.978 0H1.03467V44.684H149.978V0Z" fill="white"/>
</g>
</mask>
<g mask="url(#mask22_596_247)">
<path id="Vector_46" d="M109.885 8.15625H111.219L114.553 13.3784C114.523 12.8809 114.512 12.4251 114.512 12.0051V8.15625H115.59V14.8946H114.297L110.913 9.58916C110.945 10.1849 110.963 10.7241 110.963 11.1919V14.8946H109.885V8.15625Z" fill="white"/>
</g>
</g>
</g>
<g id="Clip path group_24">
<mask id="mask23_596_247" style="mask-type:luminance" maskUnits="userSpaceOnUse" x="1" y="0" width="149" height="45">
<g id="clipPath388">
<path id="Vector_47" d="M149.978 0H1.03467V44.684H149.978V0Z" fill="white"/>
</g>
</mask>
<g mask="url(#mask23_596_247)">
<path id="Vector_48" fill-rule="evenodd" clip-rule="evenodd" d="M31.1223 8.19214H18.7571C12.9273 8.19214 10.7944 10.325 10.7944 16.1548V28.529C10.7944 34.3587 12.9273 36.4917 18.7571 36.4917H31.1223C36.9521 36.4917 39.088 34.3587 39.088 28.529V16.1548C39.094 10.3251 36.9611 8.19214 31.1223 8.19214Z" fill="#C8102E"/>
</g>
</g>
<g id="Clip path group_25">
<mask id="mask24_596_247" style="mask-type:luminance" maskUnits="userSpaceOnUse" x="1" y="0" width="149" height="45">
<g id="clipPath382">
<path id="Vector_49" d="M149.978 0H1.03467V44.684H149.978V0Z" fill="white"/>
</g>
</mask>
<g mask="url(#mask24_596_247)">
<path id="Vector_50" d="M16.3968 22.342H17.1475V26.0449H16.3968V24.5405H14.7019V26.0449H13.9512V22.342H14.7019V23.8315H16.3968V22.342ZM20.627 24.4601C20.627 25.0558 20.329 25.3836 19.7869 25.3836C19.2448 25.3836 18.9409 25.0558 18.9409 24.4273V22.342H18.1902V24.457C18.1902 25.4967 18.7681 26.0925 19.775 26.0925C20.7819 26.0925 21.3777 25.4967 21.3777 24.4243V22.342H20.627V24.4601ZM29.3016 24.886L28.4615 22.342H27.8449L27.0109 24.889L26.1916 22.342H25.3933L26.6831 26.0449H27.3058L28.1428 23.6141L28.9829 26.0449H29.6115L30.9013 22.342H30.1209L29.3016 24.886ZM32.2448 24.4481H33.6121V23.7779H32.2448V23.0212H34.2288V22.342H31.5061V26.036H34.3003V25.3686H32.2448V24.4481ZM35.194 26.036H35.9357V22.342H35.194V26.036ZM22.8612 25.2703L22.5246 26.0389H21.7589L23.3765 22.342H24.0378L25.6614 26.0389H24.8868L24.5681 25.2733L22.8612 25.2703ZM23.1412 24.6031H24.2702L23.7042 23.2804L23.1412 24.6031Z" fill="white"/>
</g>
</g>
<g id="Clip path group_26">
<mask id="mask25_596_247" style="mask-type:luminance" maskUnits="userSpaceOnUse" x="1" y="0" width="149" height="45">
<g id="clipPath376">
<path id="Vector_51" d="M149.978 0H1.03467V44.684H149.978V0Z" fill="white"/>
</g>
</mask>
<g mask="url(#mask25_596_247)">
<path id="Vector_52" d="M24.9436 17.6323C23.6947 17.6315 22.4972 17.1351 21.6142 16.252C20.7311 15.3689 20.2347 14.1714 20.2339 12.9226H20.8981C20.8981 13.9955 21.3244 15.0244 22.083 15.7832C22.8416 16.5418 23.8706 16.968 24.9436 16.968C26.0165 16.968 27.0454 16.5418 27.804 15.7832C28.5628 15.0244 28.9889 13.9955 28.9889 12.9226H29.6533C29.6525 14.1714 29.1561 15.3689 28.273 16.252C27.3899 17.1351 26.1924 17.6315 24.9436 17.6323Z" fill="white"/>
</g>
</g>
</g>
</g>
<defs>
<clipPath id="clip0_596_247">
<rect width="150" height="44.6809" fill="white" transform="translate(0.5)"/>
</clipPath>
</defs>
</svg>
